<svg width="30" height="30" viewBox="0 0 30 30" fill="none" xmlns="http://www.w3.org/2000/svg">
<g clip-path="url(#clip0_3145_40738)">
<path d="M12.9959 8.17534C12.8247 7.88946 12.5065 7.72534 12.1742 7.75059L5.03197 8.30231C4.30887 8.35821 3.66476 8.73719 3.26468 9.34222L0.267342 13.8757C-0.0359953 14.3345 -0.0842762 14.9087 0.138261 15.4117C0.36074 15.9146 0.818061 16.2651 1.36151 16.3493L7.15287 17.2463C7.19793 17.2533 7.24293 17.2567 7.28758 17.2567C7.58424 17.2567 7.8649 17.1062 8.02796 16.8511L12.9824 9.10023C13.1619 8.81939 13.1671 8.46127 12.9959 8.17534Z" fill="#B84297"/>
<path d="M21.8245 17.0043C21.5386 16.833 21.1804 16.8383 20.8996 17.0177L13.1488 21.9722C12.8553 22.1598 12.7003 22.5031 12.7536 22.8473L13.6505 28.6387C13.7347 29.1822 14.0852 29.6394 14.5883 29.862C14.7974 29.9545 15.0189 30.0001 15.2394 30.0001C15.5488 30.0001 15.8562 29.91 16.1242 29.7329L20.6577 26.7355C21.2627 26.3355 21.6418 25.6914 21.6976 24.9682L22.2493 17.826C22.275 17.4937 22.1105 17.1755 21.8245 17.0043Z" fill="#AB328A"/>
<path d="M11.3009 24.1567C11.6507 24.5065 12.1477 24.6702 12.6356 24.5886C19.7906 23.3922 25.4524 17.4682 27.6079 13.3009C30.0013 8.67352 30.09 3.78356 29.9649 1.49022C29.922 0.704366 29.2956 0.0779452 28.5097 0.0350549C26.2164 -0.0899832 21.3265 -0.00133149 16.6991 2.39215C12.5318 4.54762 6.6078 10.2094 5.41144 17.3644C5.32988 17.8523 5.49347 18.3493 5.84327 18.6991L11.3009 24.1567Z" fill="#D8DDE9"/>
<path d="M29.516 0.483887L8.57208 21.4278L11.3009 24.1566C11.6507 24.5064 12.1477 24.67 12.6356 24.5884C19.7906 23.3921 25.4524 17.468 27.6079 13.3008C30.0013 8.67341 30.09 3.78345 29.9649 1.49011C29.9435 1.09718 29.7761 0.7441 29.516 0.483887Z" fill="#C8D0DF"/>
<path d="M20.5505 13.842C19.425 13.8421 18.2999 13.4138 17.4431 12.5569C16.6131 11.727 16.1559 10.6234 16.1559 9.44957C16.1559 8.27577 16.6131 7.17216 17.4431 6.34219C19.1564 4.6288 21.9444 4.62875 23.6578 6.34219C24.4879 7.17216 24.9449 8.27577 24.9449 9.44957C24.9449 10.6234 24.4879 11.727 23.6578 12.5569C22.8012 13.4136 21.6757 13.8419 20.5505 13.842Z" fill="#57627A"/>
<path d="M5.41144 17.3644C5.32988 17.8523 5.49347 18.3493 5.84327 18.6991L11.3009 24.1567C11.6507 24.5066 12.1477 24.6701 12.6356 24.5886C14.1925 24.3283 15.6786 23.8439 17.0733 23.2027L6.79729 12.9268C6.1561 14.3215 5.67177 15.8076 5.41144 17.3644Z" fill="#57627A"/>
<path d="M0.896699 24.7226C1.12158 24.7226 1.34658 24.6367 1.51814 24.4651L4.38766 21.5956C4.7309 21.2524 4.7309 20.6959 4.38766 20.3526C4.04447 20.0094 3.48801 20.0094 3.14471 20.3526L0.275254 23.2222C-0.0679883 23.5653 -0.0679883 24.1219 0.275254 24.4651C0.446875 24.6368 0.671758 24.7226 0.896699 24.7226Z" fill="#6457C1"/>
<path d="M7.0174 22.9825C6.67422 22.6393 6.11769 22.6393 5.77445 22.9825L0.257615 28.4993C-0.0856274 28.8425 -0.0856274 29.399 0.257615 29.7423C0.429236 29.9139 0.654177 29.9997 0.879119 29.9997C1.10406 29.9997 1.329 29.9138 1.50056 29.7422L7.0174 24.2254C7.36064 23.8822 7.36064 23.3257 7.0174 22.9825Z" fill="#6457C1"/>
<path d="M9.64712 25.6124C9.30393 25.2692 8.74741 25.2692 8.40417 25.6124L5.53471 28.4818C5.19147 28.825 5.19147 29.3815 5.53471 29.7248C5.70634 29.8964 5.93128 29.9822 6.15616 29.9822C6.38104 29.9822 6.60604 29.8964 6.7776 29.7248L9.64712 26.8553C9.99036 26.5121 9.99036 25.9556 9.64712 25.6124Z" fill="#5447AC"/>
<path d="M0.257629 29.7423C0.42925 29.9139 0.654192 29.9997 0.879133 29.9997C1.10407 29.9997 1.32902 29.9138 1.50058 29.7422L7.01741 24.2254C7.36066 23.8822 7.36066 23.3257 7.01741 22.9824L0.257629 29.7423Z" fill="#5447AC"/>
<path fill-rule="evenodd" clip-rule="evenodd" d="M20.5505 13.8421C19.425 13.8422 18.2999 13.4139 17.4431 12.557L23.6578 6.34229C24.4878 7.17226 24.9449 8.27586 24.9449 9.44966C24.9449 10.6235 24.4878 11.727 23.6578 12.557C22.8012 13.4136 21.6757 13.842 20.5505 13.8421ZM11.3009 24.1569L8.57208 21.4281L11.9353 18.0649L17.0733 23.2029C15.6786 23.844 14.1925 24.3284 12.6356 24.5887C12.1477 24.6703 11.6507 24.5067 11.3009 24.1569Z" fill="#455066"/>
<path d="M20.5505 6.81396C19.8753 6.81396 19.2001 7.07096 18.6861 7.585C18.1881 8.08299 17.9138 8.7451 17.9138 9.44939C17.9138 10.1537 18.1881 10.8158 18.6861 11.3138C19.7141 12.3418 21.387 12.3419 22.415 11.3138C22.913 10.8157 23.1873 10.1536 23.1873 9.44934C23.1873 8.74504 22.913 8.08293 22.415 7.58494C21.9009 7.07096 21.2258 6.81396 20.5505 6.81396Z" fill="#3E9FCB"/>
<path d="M22.4149 7.58496L18.686 11.3138C19.7141 12.3418 21.3869 12.3419 22.4149 11.3138C22.9129 10.8158 23.1871 10.1537 23.1871 9.44936C23.1871 8.74506 22.9129 8.08295 22.4149 7.58496Z" fill="#2A8CB8"/>
</g>
<defs>
<clipPath id="clip0_3145_40738">
<rect width="30" height="30" fill="white"/>
</clipPath>
</defs>
</svg>
